<svg xmlns="http://www.w3.org/2000/svg" xmlns:svg="http://www.w3.org/2000/svg" xmlns:xlink="http://www.w3.org/1999/xlink" id="svg5875" x="0" y="0" version="1.1" viewBox="0 0 64 64" xml:space="preserve" style="enable-background:new 0 0 64 64"><metadata id="metadata91"/><style id="style3" type="text/css">.st7{fill:url(#SVGID_7_)}</style><radialGradient id="SVGID_4_" cx="26.131" cy="13.064" r="17.684" gradientUnits="userSpaceOnUse"><stop style="stop-color:#d3b6b6" id="stop57" offset=".048"/><stop style="stop-color:#600" id="stop59" offset="1"/></radialGradient><radialGradient id="SVGID_5_" cx="50.96" cy="22.211" r="17.684" gradientUnits="userSpaceOnUse"><stop style="stop-color:#e2c6e2" id="stop65" offset="0"/><stop style="stop-color:#939" id="stop67" offset="1"/></radialGradient><radialGradient id="SVGID_6_" cx="37.183" cy="34.103" r="17.684" gradientTransform="matrix(1.6355608,0,0,1.6355608,-20.273661,-36.707447)" gradientUnits="userSpaceOnUse" xlink:href="#SVGID_7_"><stop style="stop-color:#ff8080;stop-opacity:1" id="stop74" offset=".21"/><stop style="stop-color:#f03" id="stop76" offset="1"/></radialGradient><radialGradient id="SVGID_7_" cx="39.775" cy="31.613" r="28.881" gradientTransform="matrix(1.6355608,0,0,1.6355608,-20.273661,-36.707447)" gradientUnits="userSpaceOnUse"><stop style="stop-color:#fff" id="stop83" offset="0"/><stop style="stop-color:#fc6" id="stop85" offset="1"/></radialGradient><path id="path87" d="m 58.885059,23.772967 c 0,0.214104 0,0.428207 0,0.428207 -1.263817,4.924366 -2.316997,10.27694 -3.580816,15.843617 -0.210635,0.856411 -0.842543,1.498721 -1.474452,1.498721 -7.161628,0.856412 -14.533894,1.284617 -21.906161,1.284617 0,0 0,0 0,0 -7.372266,0 -14.744533,-0.428205 -21.906161,-1.284617 -0.842546,0 -1.474454,-0.64231 -1.685091,-1.498721 C 7.068561,34.478114 6.015381,29.12554 4.751563,24.201174 c 0,-0.214103 0,-0.428207 0,-0.428207 -1.474453,-0.214102 -2.527634,-1.49872 -2.527634,-2.997442 0,-1.926925 1.474454,-3.853854 3.370179,-4.282058 1.895727,-0.428206 3.370178,1.070514 3.370178,3.211543 0,1.284618 -0.421271,2.355134 -1.263815,3.211545 1.474452,1.49872 2.948906,3.211545 4.42336,4.924367 1.05318,1.284618 2.738268,2.14103 4.423357,2.14103 1.895726,0 3.791452,-1.070513 5.055268,-2.99744 2.527634,-4.067957 5.055269,-8.350015 7.582903,-12.632075 -0.631909,-0.856411 -1.053182,-1.926927 -1.053182,-2.997441 0,-2.3551323 1.474455,-4.4961633 3.580816,-4.4961633 1.895724,0 3.580816,2.141031 3.580816,4.4961633 0,1.070514 -0.421274,2.14103 -1.053183,2.997441 0,0 0,0 0,0 2.527635,4.28206 5.055271,8.564118 7.582905,12.632075 1.263815,1.926927 2.948905,3.211543 5.055267,3.211543 1.685088,0 3.159542,-0.642308 4.423357,-1.926926 1.474455,-1.712824 2.948909,-3.425647 4.633996,-4.924368 -0.842543,-0.856413 -1.263816,-1.926926 -1.263816,-3.211544 0,-2.14103 1.474452,-3.63975 3.370178,-3.211546 1.895726,0.428207 3.37018,2.355134 3.37018,4.282061 -0.210636,1.070515 -1.05318,2.141029 -2.527634,2.569235 z M 54.882972,47.32429 c 0,-1.070513 -0.631908,-1.712822 -1.68509,-1.49872 -14.112623,2.141029 -28.857156,2.141029 -42.969779,0 -0.842544,-0.214102 -1.685088,0.64231 -1.685088,1.49872 0,1.498722 0,2.997443 0,4.496164 0,1.070513 0.631908,2.14103 1.685088,2.355132 14.112623,3.425646 28.857156,3.425646 42.969779,0 0.842545,-0.214102 1.68509,-1.284619 1.68509,-2.355132 0,-1.498721 0,-2.997442 0,-4.496164 z" class="st7" style="fill:#fff"/></svg>